<svg data-v-423bf9ae="" xmlns="http://www.w3.org/2000/svg" viewBox="0 0 315.18748528976016 60" class="font"><!----><!----><!----><g data-v-423bf9ae="" id="4ac0dab7-9386-48df-bc8e-16b7e24266c6" fill="white" transform="matrix(4.687499930150808,0,0,4.687499930150808,-5.859371372265855,-17.43750058952719)"><path d="M5.99 3.99C5.52 3.93 5.15 3.92 4.59 3.92L1.25 3.92L1.25 13.58L3.18 13.58L3.18 9.94L4.59 9.94C5.15 9.94 5.52 9.93 5.99 9.87C7.39 9.70 8.60 8.71 8.60 6.93C8.60 5.15 7.46 4.16 5.99 3.99ZM5.42 8.37C5.21 8.40 4.91 8.41 4.56 8.41L3.18 8.41L3.18 5.45L4.56 5.45C4.91 5.45 5.21 5.46 5.42 5.49C6.09 5.59 6.57 6.02 6.57 6.93C6.57 7.84 6.09 8.27 5.42 8.37ZM13.40 5.95C12.98 5.95 12.49 6.12 12.12 6.45L11.54 7.49L11.54 6.13L9.60 6.13L9.60 13.58L11.54 13.58L11.54 10.16C11.54 8.16 12.33 7.45 13.94 7.56L13.94 6.01C13.78 5.96 13.62 5.95 13.40 5.95ZM18.21 5.94C15.74 5.94 14.35 7.59 14.35 9.86C14.35 12.11 15.74 13.78 18.21 13.78C20.69 13.78 22.08 12.11 22.08 9.86C22.08 7.59 20.69 5.94 18.21 5.94ZM18.21 12.42C17.05 12.42 16.35 11.45 16.35 9.86C16.35 8.25 17.05 7.29 18.21 7.29C19.38 7.29 20.08 8.25 20.08 9.86C20.08 11.45 19.38 12.42 18.21 12.42ZM25.65 7.46L27.19 7.46L27.19 6.19L25.65 6.19L25.65 4.35L23.72 4.35L23.72 6.19L22.62 6.19L22.62 7.46L23.72 7.46L23.72 11.13C23.72 11.55 23.72 11.87 23.74 12.21C23.83 13.26 24.35 13.73 25.79 13.73C26.22 13.73 26.63 13.71 27.06 13.64L27.06 12.38C25.98 12.46 25.72 12.29 25.66 11.56C25.65 11.37 25.65 11.16 25.65 10.91ZM31.63 5.94C29.15 5.94 27.76 7.59 27.76 9.86C27.76 12.11 29.15 13.78 31.63 13.78C34.10 13.78 35.49 12.11 35.49 9.86C35.49 7.59 34.10 5.94 31.63 5.94ZM31.63 12.42C30.46 12.42 29.76 11.45 29.76 9.86C29.76 8.25 30.46 7.29 31.63 7.29C32.79 7.29 33.49 8.25 33.49 9.86C33.49 11.45 32.79 12.42 31.63 12.42ZM40.32 3.72C38.47 3.72 36.86 4.77 36.86 6.55C36.86 8.33 38.11 9.02 40.08 9.49C41.51 9.83 42.01 10.30 42.01 11.12C42.01 11.86 41.31 12.33 40.43 12.33C39.45 12.33 38.64 11.79 38.43 10.72L36.46 10.72C36.64 12.75 38.15 13.78 40.46 13.78C42.36 13.78 44.03 12.74 44.03 10.92C44.03 9.37 43.08 8.39 40.95 7.90C39.41 7.53 38.89 7.13 38.89 6.31C38.89 5.53 39.48 5.17 40.25 5.17C41.26 5.17 41.80 5.78 41.92 6.76L43.89 6.76C43.68 5.04 42.63 3.72 40.32 3.72ZM52.32 6.13L50.20 6.13L48.38 12.11L46.54 6.13L44.38 6.13L47.42 13.93L47.32 14.17C47.01 14.91 46.58 15.16 45.92 15.16C45.72 15.16 45.54 15.16 45.35 15.13L45.35 16.46C45.63 16.51 45.86 16.52 46.21 16.52C47.73 16.52 48.54 15.88 49.32 13.86ZM60.12 8.02C59.96 6.72 59.05 5.94 57.47 5.94C56.76 5.94 56.21 6.08 55.68 6.45L55.10 7.34L55.10 6.13L53.17 6.13L53.17 13.58L55.10 13.58L55.10 10.18C55.10 8.11 55.85 7.29 56.78 7.29C57.72 7.29 58.16 7.83 58.21 8.61C58.24 8.99 58.24 9.34 58.24 9.65L58.24 13.58L60.17 13.58L60.17 9.38C60.17 8.78 60.16 8.40 60.12 8.02ZM65.09 5.94C63.04 5.94 61.36 7.36 61.36 9.91C61.36 12.49 62.89 13.78 64.92 13.78C66.78 13.78 68.15 12.84 68.47 11.00L66.54 11.00C66.35 11.94 65.79 12.42 65.03 12.42C64.06 12.42 63.36 11.63 63.36 9.79C63.36 8.09 64.06 7.29 65.04 7.29C65.84 7.29 66.40 7.74 66.58 8.82L68.49 8.82C68.35 7.17 67.10 5.94 65.09 5.94Z"></path></g><!----><!----></svg>